<?xml version="1.0" encoding="UTF-8" standalone="no"?>
<!-- Created with Inkscape (http://www.inkscape.org/) -->

<svg
   xmlns:dc="http://purl.org/dc/elements/1.1/"
   xmlns:cc="http://creativecommons.org/ns#"
   xmlns:rdf="http://www.w3.org/1999/02/22-rdf-syntax-ns#"
   xmlns:svg="http://www.w3.org/2000/svg"
   xmlns="http://www.w3.org/2000/svg"
   xmlns:sodipodi="http://sodipodi.sourceforge.net/DTD/sodipodi-0.dtd"
   xmlns:inkscape="http://www.inkscape.org/namespaces/inkscape"
   width="397.54468"
   height="23.75486"
   viewBox="0 0 105.18369 6.2851398"
   version="1.1"
   id="svg9761"
   inkscape:version="0.92.0 r15299"
   sodipodi:docname="willis towers watson.svg">
  <defs
     id="defs9755" />
  <sodipodi:namedview
     id="base"
     pagecolor="#ffffff"
     bordercolor="#666666"
     borderopacity="1.0"
     inkscape:pageopacity="0.0"
     inkscape:pageshadow="2"
     inkscape:zoom="2.2620401"
     inkscape:cx="198.27234"
     inkscape:cy="11.377428"
     inkscape:document-units="mm"
     inkscape:current-layer="layer1"
     showgrid="false"
     fit-margin-top="0"
     fit-margin-left="0"
     fit-margin-right="0"
     fit-margin-bottom="0"
     units="px"
     inkscape:window-width="1280"
     inkscape:window-height="744"
     inkscape:window-x="-4"
     inkscape:window-y="-4"
     inkscape:window-maximized="1" />
  <metadata
     id="metadata9758">
    <rdf:RDF>
      <cc:Work
         rdf:about="">
        <dc:format>image/svg+xml</dc:format>
        <dc:type
           rdf:resource="http://purl.org/dc/dcmitype/StillImage" />
        <dc:title></dc:title>
      </cc:Work>
    </rdf:RDF>
  </metadata>
  <g
     inkscape:label="Layer 1"
     inkscape:groupmode="layer"
     id="layer1"
     transform="translate(-82.099967,-205.27871)">
    <path
       style="fill:#702481;stroke-width:0.26458332"
       inkscape:connector-curvature="0"
       class="cls-1"
       d="m 82.233423,205.43544 h 1.11125 a 0.11377083,0.11377083 0 0 1 0.12171,0.11906 c 0.32014,1.28323 0.71966,2.54794 0.94456,3.85498 0,0.037 0.0212,0.0714 0.0476,0.16669 0.13758,-0.61913 0.26458,-1.18004 0.38629,-1.74096 0.16668,-0.74613 0.328081,-1.4896 0.48418,-2.23308 a 0.16933333,0.16933333 0 0 1 0.20638,-0.17992 8.0036458,8.0036458 0 0 0 0.81492,0 0.17727083,0.17727083 0 0 1 0.21695,0.17992 q 0.415401,1.93145 0.838731,3.86291 c 0,0.0159 0,0.0317 0.0397,0.0979 0.0847,-0.37306 0.15346,-0.6985 0.235479,-1.02129 0.246061,-0.9869 0.500061,-1.97909 0.743481,-2.97657 a 0.14552083,0.14552083 0 0 1 0.17727,-0.14287 h 0.875769 c 0.140231,0 0.161401,0.0265 0.121711,0.16404 q -0.635,2.21721 -1.25942,4.42119 c -0.10583,0.37571 -0.22225,0.74877 -0.3175,1.12712 a 0.17991666,0.17991666 0 0 1 -0.21696,0.15875 h -0.79375 a 0.1508125,0.1508125 0 0 1 -0.182561,-0.14287 c -0.28575,-1.32292 -0.613829,-2.61673 -0.881059,-3.99521 -0.0635,0.32544 -0.108481,0.6006 -0.169331,0.87048 -0.235479,1.03981 -0.47625,2.07698 -0.709089,3.11679 a 0.1508125,0.1508125 0 0 1 -0.179911,0.15081 h -0.83609 a 0.12964583,0.12964583 0 0 1 -0.15875,-0.10054 q -0.82814,-2.86014 -1.66158,-5.72294 a 0.12964583,0.12964583 0 0 1 0,-0.0344 z m 50.551287,1.7436 c -0.21696,1.25942 -0.52917,2.45269 -0.79375,3.6539 a 0.81491667,0.81491667 0 0 1 -0.12171,0.42598 0.91016667,0.91016667 0 0 1 -0.46302,0.0291 c -0.20637,0 -0.46566,0.0688 -0.60059,-0.0318 -0.13494,-0.10054 -0.14024,-0.37041 -0.1958,-0.56621 q -0.73025,-2.49766 -1.4552,-4.99533 a 0.52916667,0.52916667 0 0 1 -0.0476,-0.26458 h 1.09272 c 0.11643,0 0.12436,0.0714 0.14288,0.14816 0.32809,1.32292 0.7329,2.61409 0.96309,3.95552 a 0.2936875,0.2936875 0 0 0 0.0185,0.0397 c 0.11377,-0.508 0.22225,-1.00012 0.32808,-1.4896 0.18257,-0.82815 0.36513,-1.65629 0.52917,-2.48444 a 0.1666875,0.1666875 0 0 1 0.20373,-0.17727 h 0.83608 a 0.15875,0.15875 0 0 1 0.19315,0.1561 c 0.26458,1.25677 0.54504,2.5109 0.82021,3.76502 0.0132,0.0635 0.0291,0.127 0.0556,0.24078 0.12171,-0.52917 0.2249,-1.00013 0.34131,-1.47373 0.20902,-0.83609 0.42863,-1.68011 0.64029,-2.52942 a 0.15610416,0.15610416 0 0 1 0.18257,-0.15875 h 1.03716 c -0.1217,0.43392 -0.23812,0.8546 -0.35718,1.27 -0.41805,1.48696 -0.84138,2.96333 -1.24883,4.42648 a 0.18785416,0.18785416 0 0 1 -0.2249,0.17462 c -0.26459,-0.0132 -0.52917,0 -0.79375,0 a 0.1508125,0.1508125 0 0 1 -0.18257,-0.15081 c -0.26458,-1.27529 -0.6006,-2.54 -0.84137,-3.82058 a 1.285875,1.285875 0 0 0 -0.0582,-0.14288 z m -20.31735,2.61409 c 0.18785,-0.89959 0.44979,-1.73302 0.6641,-2.58234 a 0.14022916,0.14022916 0 0 1 0.16404,-0.12435 h 0.67734 a 0.17197916,0.17197916 0 0 1 0.20108,0.15875 c 0.22754,0.83079 0.4789,1.65364 0.67998,2.48973 a 0.12435417,0.12435417 0 0 0 0.0714,-0.13229 l 0.635,-2.38125 a 0.14022916,0.14022916 0 0 1 0.1561,-0.13759 h 0.83608 c 0.11113,0 0.1323,0.0291 0.10055,0.14023 q -0.59267,1.9685 -1.17211,3.93965 a 0.15345833,0.15345833 0 0 1 -0.18256,0.127 h -0.71702 a 0.17727083,0.17727083 0 0 1 -0.21431,-0.1614 c -0.2249,-0.85725 -0.45773,-1.7145 -0.69586,-2.60879 -0.0265,0.082 -0.0476,0.12965 -0.0608,0.17992 -0.2249,0.80962 -0.45244,1.61925 -0.6694,2.43152 a 0.1666875,0.1666875 0 0 1 -0.19844,0.15875 h -0.73554 a 0.13758333,0.13758333 0 0 1 -0.16139,-0.12171 q -0.5715,-1.97379 -1.15359,-3.94494 c -0.0317,-0.10848 -0.0185,-0.14023 0.0979,-0.13758 h 0.83608 a 0.15875,0.15875 0 0 1 0.18786,0.14552 c 0.19843,0.79375 0.40481,1.5875 0.60854,2.38125 0.003,0.0423 0.0185,0.09 0.045,0.17992 z m 72.70751,-1.42875 V 205.618 c 0,-0.14817 0.037,-0.1905 0.1852,-0.18785 h 1.61132 c 0.11906,0 0.17462,0.0132 0.17462,0.1561 v 5.55625 a 0.127,0.127 0 0 1 -0.1561,0.15875 h -1.651 c -0.13759,0 -0.16404,-0.045 -0.16404,-0.16933 0.003,-0.9234 0,-1.84679 0,-2.76754 z m -3.87616,0.0106 v 2.74637 c 0,0.13494 -0.0291,0.18257 -0.17462,0.17992 h -1.63248 c -0.13494,0 -0.16669,-0.0397 -0.16669,-0.16933 v -5.52979 c 0,-0.12436 0.0265,-0.16934 0.16404,-0.16934 h 1.63249 c 0.14022,0 0.17726,0.037 0.17726,0.17727 -0.003,0.92075 0,1.8415 0,2.7649 z m -20.17712,-0.0185 v -2.74638 c 0,-0.13758 0.0317,-0.17991 0.17462,-0.17727 h 1.63249 c 0.13228,0 0.16669,0.037 0.16669,0.16669 v 5.52979 c 0,0.12436 -0.0238,0.17198 -0.16405,0.16934 h -1.63248 c -0.14022,0 -0.17727,-0.0397 -0.17463,-0.17728 0,-0.92075 -0.003,-1.84414 -0.003,-2.76489 z m 7.82108,0.005 v 2.72521 c 0,0.15875 -0.0291,0.21696 -0.20372,0.21431 h -1.61131 a 0.127,0.127 0 0 1 -0.15612,-0.1561 v -5.55625 c 0,-0.14023 0.0503,-0.1614 0.17198,-0.15875 h 1.61131 c 0.14553,0 0.1905,0.0317 0.18786,0.18521 -0.005,0.91545 0,1.83091 0,2.74637 z m 4.20687,-0.0291 v -2.72521 c 0,-0.15346 0.0423,-0.18786 0.18786,-0.18521 h 1.5875 c 0.14024,0 0.19314,0.0212 0.19314,0.17992 v 5.51127 a 0.142875,0.142875 0 0 1 -0.17726,0.17727 h -1.61132 c -0.1561,0 -0.18256,-0.0529 -0.18256,-0.19315 0.005,-0.91281 0.003,-1.83356 0.003,-2.76489 z m -53.70777,1.1721 h -1.35202 c -0.082,0 -0.1561,-0.0159 -0.14023,0.11642 a 1.0583333,1.0583333 0 0 0 1.34144,0.88371 0.67204167,0.67204167 0 0 0 0.44186,-0.34132 0.24077083,0.24077083 0 0 1 0.26458,-0.14552 h 0.71702 c 0.16669,0 0.20903,0.0291 0.14817,0.19844 a 1.7224375,1.7224375 0 0 1 -1.28323,1.12977 2.206625,2.206625 0 0 1 -2.38125,-0.80698 2.4844375,2.4844375 0 0 1 0.22489,-2.93687 2.0134791,2.0134791 0 0 1 2.08227,-0.55563 c 0.81757,0.20902 1.2118,0.82286 1.397,1.60073 a 4.2888958,4.2888958 0 0 1 0.0873,0.64823 c 0,0.15875 -0.0238,0.21696 -0.19844,0.21167 -0.45773,-0.0132 -0.90488,-0.003 -1.34938,-0.003 z m -0.5662,-0.76994 h 0.77522 c 0.12436,0 0.15875,-0.0265 0.13494,-0.1561 a 0.88370833,0.88370833 0 0 0 -0.89164,-0.74877 0.936625,0.936625 0 0 0 -0.92339,0.79375 c -0.0159,0.11641 0.045,0.10054 0.11112,0.10054 h 0.79375 z m 21.22752,2.55588 h -1.016 a 0.13758333,0.13758333 0 0 1 -0.15345,-0.11906 l -0.0794,-0.30957 c -0.5715,0.64559 -1.26472,0.64559 -1.98702,0.381 a 1.0847917,1.0847917 0 0 1 -0.71966,-1.02923 1.1218333,1.1218333 0 0 1 0.60325,-1.15887 4.1275,4.1275 0 0 1 1.35731,-0.35454 4.4741042,4.4741042 0 0 0 0.46302,-0.10319 0.33072917,0.33072917 0 0 0 0.26458,-0.2831 0.42333333,0.42333333 0 0 0 -0.17727,-0.39953 0.89164583,0.89164583 0 0 0 -1.32293,0.37571 0.09525,0.09525 0 0 1 -0.10582,0.0847 h -0.79375 c -0.13758,0 -0.10848,-0.0873 -0.0952,-0.1614 a 1.2303125,1.2303125 0 0 1 0.63236,-0.93927 2.460625,2.460625 0 0 1 2.29393,-0.0556 c 0.48419,0.2249 0.64559,0.68527 0.65616,1.18798 0.0132,0.76994 0,1.53723 0,2.30717 a 0.81227083,0.81227083 0 0 0 0.17993,0.57679 z m -1.22767,-1.74361 v -0.17991 c 0,-0.12171 0,-0.18786 -0.15346,-0.11642 a 2.841625,2.841625 0 0 1 -0.45507,0.13494 3.1511875,3.1511875 0 0 0 -0.7726,0.24341 0.48947917,0.48947917 0 0 0 -0.26458,0.52917 0.45508333,0.45508333 0 0 0 0.41275,0.4154 c 0.75143,0.1561 1.23296,-0.24871 1.23296,-1.02659 z m -32.77394,-0.38364 c 0.0476,-1.32292 0.98425,-2.23838 2.26219,-2.19604 1.27794,0.0423 2.18017,1.0107 2.13519,2.33891 -0.0423,1.28323 -1.01865,2.14842 -2.38125,2.10079 a 2.1457708,2.1457708 0 0 1 -2.01613,-2.24366 z m 3.25438,0.13494 a 1.8362083,1.8362083 0 0 0 -0.16669,-0.92605 0.93397917,0.93397917 0 0 0 -0.87577,-0.54768 0.90222917,0.90222917 0 0 0 -0.89429,0.54504 1.8520833,1.8520833 0 0 0 0.0159,1.66687 0.98160417,0.98160417 0 0 0 1.69335,0.0741 1.5266458,1.5266458 0 0 0 0.22753,-0.80963 z m 38.01268,-0.11907 a 2.1166666,2.1166666 0 0 1 2.19869,-2.21191 c 1.29381,0 2.18811,0.93662 2.18811,2.26483 0,1.27529 -0.93398,2.17752 -2.25161,2.17487 -1.23296,0 -2.13519,-0.93927 -2.13519,-2.22779 z m 2.18811,-1.35731 a 0.91545833,0.91545833 0 0 0 -0.87576,0.52917 1.9155833,1.9155833 0 0 0 -0.0714,1.48696 0.9604375,0.9604375 0 0 0 0.9525,0.70114 0.9763125,0.9763125 0 0 0 0.9472,-0.68527 2.0108333,2.0108333 0 0 0 0,-1.34408 0.96308333,0.96308333 0 0 0 -0.94986,-0.68527 z m 3.8788,-0.22225 a 1.7409583,1.7409583 0 0 1 0.8493,-0.59002 1.4313958,1.4313958 0 0 1 1.85209,1.32292 c 0.0529,0.94191 0,1.88383 0.0212,2.82575 a 0.10054167,0.10054167 0 0 1 -0.127,0.1217 h -0.85725 c -0.13229,0 -0.14816,-0.0503 -0.14816,-0.16404 v -2.30981 c 0,-0.55827 -0.23019,-0.8546 -0.67734,-0.87577 a 0.841375,0.841375 0 0 0 -0.88106,0.85725 c -0.0185,0.64294 0,1.28852 0,1.93146 0,0.17727 0.0582,0.41539 -0.0318,0.52916 -0.09,0.11378 -0.34925,0.0291 -0.52917,0.0397 h -0.37835 c -0.11377,0 -0.17992,-0.0318 -0.17992,-0.16933 v -3.86292 c 0,-0.127 0.0265,-0.17727 0.16404,-0.17198 h 0.77524 a 0.12435417,0.12435417 0 0 1 0.15346,0.1614 c -0.0132,0.11642 -0.005,0.23548 -0.005,0.35454 z"
       id="path9729" />
    <path
       style="fill:#702481;stroke-width:0.26458332"
       inkscape:connector-curvature="0"
       class="cls-1"
       d="m 105.28921,208.86179 v 2.24896 c 0,0.13494 -0.0291,0.18256 -0.17198,0.17727 h -0.8546 c -0.14552,0 -0.17198,-0.045 -0.17198,-0.17991 v -4.43707 c 0,-0.21166 -0.0609,-0.24871 -0.26458,-0.24341 -0.4445,0.0132 -0.889,0 -1.32292,0 -0.15611,0 -0.18786,-0.045 -0.18256,-0.1905 v -0.69586 c 0.0212,-0.082 0.0423,-0.11906 0.13758,-0.11906 h 4.47675 a 0.10054167,0.10054167 0 0 1 0.12171,0.127 v 0.73554 c 0,0.11642 -0.0423,0.14288 -0.15081,0.14288 h -1.4314 c -0.14552,0 -0.19315,0.0317 -0.1905,0.1852 0.008,0.75671 0.005,1.50548 0.005,2.24896 z m -6.850057,1.05834 a 1.1668125,1.1668125 0 0 0 0.14023,0 c 0.22489,-0.0265 0.39687,0 0.46037,0.26458 a 0.52916667,0.52916667 0 0 0 0.39159,0.36512 1.3229166,1.3229166 0 0 0 0.857247,0 0.42333333,0.42333333 0 0 0 0.33073,-0.39952 0.39158333,0.39158333 0 0 0 -0.3175,-0.381 8.8688333,8.8688333 0 0 0 -1.005417,-0.22754 3.6750625,3.6750625 0 0 1 -0.52917,-0.15875 1.031875,1.031875 0 0 1 -0.71966,-0.86783 1.2117917,1.2117917 0 0 1 0.50006,-1.2409 2.1378333,2.1378333 0 0 1 1.32291,-0.30956 2.0928541,2.0928541 0 0 1 0.936627,0.22754 1.4102291,1.4102291 0 0 1 0.73554,1.05834 c 0.0185,0.0952 -0.0132,0.12964 -0.11112,0.127 h -0.75671 a 0.1349375,0.1349375 0 0 1 -0.18521,-0.12436 0.59002083,0.59002083 0 0 0 -0.529167,-0.47625 1.2594167,1.2594167 0 0 0 -0.64558,0.0476 0.39952083,0.39952083 0 0 0 -0.30427,0.3757 0.34925,0.34925 0 0 0 0.30162,0.34396 c 0.34661,0.12171 0.714377,0.14288 1.058337,0.23548 a 4.1698333,4.1698333 0 0 1 0.58473,0.18786 c 0.87048,0.36512 0.83079,1.53987 0.29368,2.00025 a 1.793875,1.793875 0 0 1 -0.97102,0.41539 2.7516667,2.7516667 0 0 1 -1.500177,-0.17462 1.4366875,1.4366875 0 0 1 -0.86784,-1.10861 c -0.0212,-0.12171 0,-0.18521 0.14552,-0.17198 0.14552,0.0132 0.25665,-0.008 0.38365,-0.008 z m 26.392187,0 h 0.0794 c 0.24606,-0.0159 0.4789,-0.037 0.52917,0.30427 a 0.460375,0.460375 0 0 0 0.31221,0.28839 1.2567708,1.2567708 0 0 0 0.96837,0 0.40745833,0.40745833 0 0 0 0.28575,-0.39423 0.3889375,0.3889375 0 0 0 -0.29633,-0.35983 8.41375,8.41375 0 0 0 -1.04511,-0.23548 3.6433125,3.6433125 0 0 1 -0.52916,-0.16139 1.0265833,1.0265833 0 0 1 -0.70644,-0.85725 1.2117917,1.2117917 0 0 1 0.48948,-1.22503 2.38125,2.38125 0 0 1 2.43417,0 1.4181666,1.4181666 0 0 1 0.56885,0.94457 c 0.0159,0.0926 0,0.13229 -0.10319,0.13229 h -0.77523 a 0.12170833,0.12170833 0 0 1 -0.14552,-0.11642 0.59002083,0.59002083 0 0 0 -0.55562,-0.48683 1.1615208,1.1615208 0 0 0 -0.71702,0.0873 0.37835417,0.37835417 0 0 0 -0.22755,0.36777 0.34395833,0.34395833 0 0 0 0.26459,0.29634 6.4373125,6.4373125 0 0 0 0.94721,0.21431 4.6487292,4.6487292 0 0 1 0.64823,0.18256 1.1086042,1.1086042 0 0 1 0.77787,1.08744 1.2038542,1.2038542 0 0 1 -0.66675,1.15623 2.50825,2.50825 0 0 1 -1.4896,0.22754 2.0187708,2.0187708 0 0 1 -0.89959,-0.29104 1.4181666,1.4181666 0 0 1 -0.66675,-1.03188 c -0.0159,-0.10054 0,-0.14816 0.11642,-0.14023 0.11642,0.008 0.26723,0.0106 0.40217,0.0106 z m 18.923,0 h 0.0794 c 0.24342,0 0.44186,-0.0265 0.55033,0.29898 0.10848,0.32543 0.58209,0.46037 1.04246,0.37306 a 1.1377083,1.1377083 0 0 0 0.17198,-0.045 0.4445,0.4445 0 0 0 0.34131,-0.4154 0.40216667,0.40216667 0 0 0 -0.33072,-0.37306 c -0.37571,-0.13229 -0.77788,-0.1561 -1.15888,-0.26458 -0.09,-0.0265 -0.17992,-0.0476 -0.26458,-0.0794 -0.52917,-0.1905 -0.80963,-0.51594 -0.83079,-0.99748 a 1.1879792,1.1879792 0 0 1 0.73818,-1.26471 2.4235833,2.4235833 0 0 1 1.95263,0 1.3546666,1.3546666 0 0 1 0.80962,1.05834 c 0.0212,0.10054 0,0.16139 -0.12171,0.1561 h -0.73554 a 0.1349375,0.1349375 0 0 1 -0.16404,-0.12171 0.59002083,0.59002083 0 0 0 -0.55562,-0.48418 1.2594167,1.2594167 0 0 0 -0.64559,0.0556 0.396875,0.396875 0 0 0 -0.29368,0.38364 0.35189583,0.35189583 0 0 0 0.29897,0.32809 c 0.3519,0.12171 0.72496,0.14816 1.0848,0.23812 a 2.8125208,2.8125208 0 0 1 0.63764,0.21961 1.2276667,1.2276667 0 0 1 0.14023,2.03993 c -0.6641,0.52917 -2.286,0.51594 -2.89719,-0.19314 a 1.5636875,1.5636875 0 0 1 -0.36248,-0.79375 c -0.0159,-0.0979 0,-0.14552 0.11907,-0.13758 0.11906,0.008 0.25664,0.0185 0.39423,0.0185 z m -2.78342,-0.72496 v -1.19327 c 0,-0.12171 -0.0185,-0.17463 -0.15875,-0.17198 -0.43392,0 -0.43392,0 -0.43392,-0.44715 v -0.17991 a 0.09260417,0.09260417 0 0 1 0.11642,-0.11378 h 0.0212 c 0.14552,0 0.33866,0.0635 0.42068,-0.0264 0.082,-0.09 0.0344,-0.3175 0.0344,-0.46302 v -0.67734 c 0,-0.10583 0.0185,-0.1561 0.14024,-0.15081 h 0.81491 a 0.1190625,0.1190625 0 0 1 0.14553,0.15081 v 0.95515 c 0,0.18521 0.0582,0.23019 0.22489,0.21431 h 0.35719 a 0.111125,0.111125 0 0 1 0.14023,0.13494 v 0.49741 a 0.09525,0.09525 0 0 1 -0.11642,0.11378 h -0.45773 c -0.15346,0 -0.14552,0.0423 -0.14552,0.15081 v 2.06904 c 0,0.29633 0.127,0.40746 0.43656,0.4101 0.30957,0.003 0.30428,0 0.30428,0.31221 0,0.52917 0,0.52917 -0.52917,0.52917 a 2.1801666,2.1801666 0 0 1 -0.65088,-0.0609 0.87841667,0.87841667 0 0 1 -0.6641,-0.89958 z m -47.733477,-0.83079 v 2.70668 c 0,0.1905 -0.0582,0.23284 -0.23283,0.22225 a 6.4505417,6.4505417 0 0 0 -0.71702,0 c -0.145519,0 -0.193149,-0.0291 -0.190499,-0.1852 v -5.45571 c 0,-0.1905 0.0582,-0.23284 0.232829,-0.22225 a 6.3764583,6.3764583 0 0 0 0.71702,0 c 0.14817,0 0.1905,0.0317 0.1905,0.18521 -0.005,0.9181 0,1.83356 0,2.74902 z m 2.01613,-0.003 v 2.74638 c 0,0.15081 -0.0397,0.19314 -0.18786,0.1852 a 6.0854167,6.0854167 0 0 0 -0.71702,0 c -0.17198,0 -0.22225,-0.0317 -0.2196,-0.21431 0.0106,-1.35202 0.0106,-2.70669 0.0106,-4.06929 v -1.41288 a 0.14022916,0.14022916 0 0 1 0.17462,-0.17462 h 0.75671 c 0.14552,0 0.18786,0.0317 0.18786,0.18256 -0.0106,0.92604 -0.005,1.8415 -0.005,2.75696 z m 27.437287,-0.59796 c 0.10584,-0.15081 0.17198,-0.26458 0.25135,-0.35719 a 1.0239375,1.0239375 0 0 1 0.93927,-0.37041 0.127,0.127 0 0 1 0.14023,0.14552 v 0.73554 c 0,0.10583 -0.037,0.13494 -0.13757,0.127 a 1.0900833,1.0900833 0 0 0 -0.63237,0.13229 1.0583333,1.0583333 0 0 0 -0.5027,0.99748 v 1.93146 c 0,0.14552 -0.0318,0.19579 -0.18521,0.18785 -0.26459,-0.0132 -0.52916,0 -0.79375,0 -0.10319,0 -0.15346,0 -0.15346,-0.13758 v -3.92112 a 0.1190625,0.1190625 0 0 1 0.14552,-0.14817 h 0.79375 a 0.111125,0.111125 0 0 1 0.13759,0.13494 c -0.008,0.16404 -0.003,0.3175 -0.003,0.54239 z m 55.35084,-0.8546 v 1.32291 c 0,0.11907 -0.0291,0.15875 -0.15347,0.15875 h -1.651 a 0.127,0.127 0 0 1 -0.15875,-0.1561 v -2.64583 a 0.11641667,0.11641667 0 0 1 0.14817,-0.16669 h 1.67216 c 0.13494,0 0.14817,0.0529 0.14553,0.1614 -0.008,0.44979 -0.003,0.89693 -0.003,1.32556 z m -7.80786,-0.0185 v -1.32292 c 0,-0.11377 0.0317,-0.14287 0.14552,-0.14287 h 1.67216 c 0.11113,0 0.14818,0.0265 0.14552,0.14287 v 2.64583 a 0.127,0.127 0 0 1 -0.15609,0.15611 h -1.651 a 0.12435417,0.12435417 0 0 1 -0.15611,-0.15611 c 0.005,-0.43391 0,-0.87841 0,-1.32291 z m -4.22011,2.94746 v 1.29381 c 0,0.12435 -0.0238,0.17198 -0.16139,0.16933 h -1.651 c -0.12964,0 -0.15082,-0.045 -0.15082,-0.15875 v -2.60614 c 0,-0.14817 0.0503,-0.17198 0.18257,-0.17198 h 1.5875 c 0.16668,0 0.19314,0.0582 0.1905,0.20373 -0.003,0.42068 0.003,0.84402 0.003,1.27 z m 16.24807,-0.005 v -1.32291 c 0,-0.12171 0.0291,-0.15875 0.15346,-0.15611 h 1.651 a 0.127,0.127 0 0 1 0.15875,0.15611 v 2.62731 a 0.12435417,0.12435417 0 0 1 -0.1561,0.1561 h -1.651 c -0.11906,0 -0.15875,-0.0264 -0.15611,-0.15345 0.005,-0.42598 0,-0.86784 0,-1.30705 z m -92.172897,-0.65352 v -1.88912 c 0,-0.16934 0.0503,-0.21431 0.211671,-0.20638 h 0.775219 a 0.1190625,0.1190625 0 0 1 0.148171,0.14817 v 3.91848 c 0,0.11906 -0.0423,0.14287 -0.15081,0.14023 h -0.793751 c -0.145519,0 -0.1905,-0.0317 -0.18786,-0.18521 0.003,-0.63765 -0.003,-1.28323 -0.003,-1.92617 z m 7.18873,0.0132 v 1.89177 c 0,0.18521 -0.0556,0.21961 -0.21961,0.21167 -0.26458,-0.0132 -0.52916,0 -0.77523,0 a 0.10054167,0.10054167 0 0 1 -0.127,-0.12171 v -3.96875 a 0.10054167,0.10054167 0 0 1 0.127,-0.12171 h 0.83609 c 0.14552,0 0.1561,0.0582 0.1561,0.17463 0,0.64823 0.003,1.29116 0.003,1.9341 z m -6.619879,-3.74385 c 0.17727,0 0.4154,-0.0688 0.529169,0.0185 0.113771,0.0873 0.037,0.3466 0.0397,0.52917 0,0.44185 0,0.44185 -0.43921,0.44185 h -0.55563 a 0.10847917,0.10847917 0 0 1 -0.134929,-0.13758 V 205.565 a 0.10847917,0.10847917 0 0 1 0.12435,-0.14287 h 0.43656 z m 6.066899,0.003 c 0.17727,0 0.4101,-0.0688 0.52917,0.0185 0.11906,0.0873 0.0317,0.33603 0.0344,0.51065 0,0.45508 0,0.45508 -0.46302,0.45508 h -0.52917 c -0.10054,0 -0.14023,-0.0238 -0.13758,-0.13229 v -0.73554 c 0,-0.11906 0.0423,-0.14552 0.14817,-0.13758 0.10583,0.008 0.27781,0 0.41804,0 z"
       id="path9731" />
  </g>
</svg>
