<svg xmlns="http://www.w3.org/2000/svg" viewBox="0 0 245 79.02"><title>Willis Towers Watson logo</title><path d="M634.5,488l-24,62.07H590.24l-10.12-34.66-10.2,34.66H549.71l-17.77-46.3H520.88v20.85c0,9.78,4,11.4,9.36,11.4a20.28,20.28,0,0,0,4.25-.54L540,549.93a55,55,0,0,1-13.17,1.58c-18.53,0-26.43-7.57-26.43-25.29V503.8H492l-17.91,46.3H453.85l-10.1-34.66L433.52,550.1H413.3L389.5,488h22.94l12,37.51L435.81,488h15.81l11.52,37.51L475,488h25.39V476.87l20.45-4.38V488h28l11.95,37.51L572.21,488H588l11.52,37.51L611.39,488Z" transform="translate(-389.5 -472.49)" style="fill:#7f35b2"/></svg>